<svg width="45" height="45" viewBox="0 0 45 45" fill="none" xmlns="http://www.w3.org/2000/svg">
<path d="M17.8296 0C7.99299 0 0 7.81094 0 17.4235C0 27.036 7.99299 34.847 17.8296 34.847C21.7216 34.847 25.3186 33.6219 28.252 31.548L42.0503 45L45 42.1174L31.3656 28.7616C34.045 25.7109 35.6591 21.7513 35.6591 17.4235C35.6591 7.81094 27.6661 0 17.8296 0ZM17.8296 2.04982C26.5313 2.04982 33.5615 8.91993 33.5615 17.4235C33.5615 25.927 26.5313 32.7972 17.8296 32.7972C9.12782 32.7972 2.0976 25.927 2.0976 17.4235C2.0976 8.91993 9.12782 2.04982 17.8296 2.04982Z" fill="#1B1B27"/>
</svg>
